{
	"asset":{
		"version":"2.0",
		"generator":"Houdini GLTF 2.0 Exporter"
	},
	"accessors":[
		{
			"bufferView":0,
			"componentType":5121,
			"count":48,
			"type":"SCALAR",
			"min":[0
			],
			"max":[47
			]
		},
		{
			"bufferView":1,
			"componentType":5126,
			"count":48,
			"type":"VEC3",
			"min":[-0.00332787097,-0.00287701329,0.000634161057
			],
			"max":[0.00654221047,0.00425733253,0.0107826553
			]
		},
		{
			"bufferView":2,
			"componentType":5126,
			"count":48,
			"type":"VEC3",
			"min":[-0.914619923,-0.421608537,-0.986988604
			],
			"max":[0.995432019,0.87443608,0.846950889
			]
		},
		{
			"bufferView":3,
			"componentType":5121,
			"count":48,
			"type":"SCALAR",
			"min":[0
			],
			"max":[47
			]
		},
		{
			"bufferView":4,
			"componentType":5126,
			"count":48,
			"type":"VEC3",
			"min":[-0.00742041925,-0.0100649763,-0.0114104263
			],
			"max":[0.0025230844,-0.00276026293,-0.00143229577
			]
		},
		{
			"bufferView":5,
			"componentType":5126,
			"count":48,
			"type":"VEC3",
			"min":[-0.906493187,-0.437907308,-0.940290987
			],
			"max":[0.99713999,0.956580341,0.798744321
			]
		},
		{
			"bufferView":6,
			"componentType":5123,
			"count":2418,
			"type":"SCALAR",
			"min":[0
			],
			"max":[2417
			]
		},
		{
			"bufferView":7,
			"componentType":5126,
			"count":2418,
			"type":"VEC3",
			"min":[-0.035830576,-0.036135938,-0.0282036792
			],
			"max":[0.0548305735,0.0685576499,0.0905904993
			]
		},
		{
			"bufferView":8,
			"componentType":5126,
			"count":2418,
			"type":"VEC3",
			"min":[-0.999976099,-0.999906719,-0.998884499
			],
			"max":[0.999905109,0.999981344,0.9848544
			]
		},
		{
			"bufferView":9,
			"componentType":5121,
			"count":108,
			"type":"SCALAR",
			"min":[0
			],
			"max":[107
			]
		},
		{
			"bufferView":10,
			"componentType":5126,
			"count":108,
			"type":"VEC3",
			"min":[-0.00992851891,-0.0202691667,0.0259559471
			],
			"max":[0.00293962075,0.00378288794,0.045896396
			]
		},
		{
			"bufferView":11,
			"componentType":5126,
			"count":108,
			"type":"VEC3",
			"min":[-0.993348539,-0.995647907,-0.973826647
			],
			"max":[0.192015707,0.959720314,0.942871392
			]
		},
		{
			"bufferView":12,
			"componentType":5121,
			"count":30,
			"type":"SCALAR",
			"min":[0
			],
			"max":[29
			]
		},
		{
			"bufferView":13,
			"componentType":5126,
			"count":30,
			"type":"VEC3",
			"min":[0.00536754541,0.00673727551,0.0186645072
			],
			"max":[0.013914655,0.0128973406,0.0254936088
			]
		},
		{
			"bufferView":14,
			"componentType":5126,
			"count":30,
			"type":"VEC3",
			"min":[-0.934634149,-0.633020103,-0.754319966
			],
			"max":[0.997852981,0.766091406,0.739575326
			]
		},
		{
			"bufferView":15,
			"componentType":5123,
			"count":177,
			"type":"SCALAR",
			"min":[0
			],
			"max":[176
			]
		},
		{
			"bufferView":16,
			"componentType":5126,
			"count":177,
			"type":"VEC3",
			"min":[0.00952241477,-0.0118251787,-0.0168912113
			],
			"max":[0.0265227668,0.00374192209,0.000873250421
			]
		},
		{
			"bufferView":17,
			"componentType":5126,
			"count":177,
			"type":"VEC3",
			"min":[-0.990759671,-0.874780059,-0.995089352
			],
			"max":[0.974404991,0.983626962,0.888638079
			]
		},
		{
			"bufferView":18,
			"componentType":5123,
			"count":171,
			"type":"SCALAR",
			"min":[0
			],
			"max":[170
			]
		},
		{
			"bufferView":19,
			"componentType":5126,
			"count":171,
			"type":"VEC3",
			"min":[-0.00356398593,-0.0420421399,-0.0166532602
			],
			"max":[0.0225639734,-0.0229955222,0.00985044613
			]
		},
		{
			"bufferView":20,
			"componentType":5126,
			"count":171,
			"type":"VEC3",
			"min":[-0.999799967,-0.881769776,-0.939788997
			],
			"max":[0.999799967,0.326179445,0.817227423
			]
		}
	],
	"buffers":[
		{
			"uri":"quest_controller_r_data.bin",
			"byteLength":77772,
			"name":"main_buffer"
		}
	],
	"bufferViews":[
		{
			"buffer":0,
			"byteLength":48,
			"target":34963
		},
		{
			"buffer":0,
			"byteOffset":48,
			"byteLength":576,
			"target":34962
		},
		{
			"buffer":0,
			"byteOffset":624,
			"byteLength":576,
			"target":34962
		},
		{
			"buffer":0,
			"byteOffset":1200,
			"byteLength":48,
			"target":34963
		},
		{
			"buffer":0,
			"byteOffset":1248,
			"byteLength":576,
			"target":34962
		},
		{
			"buffer":0,
			"byteOffset":1824,
			"byteLength":576,
			"target":34962
		},
		{
			"buffer":0,
			"byteOffset":2400,
			"byteLength":4836,
			"target":34963
		},
		{
			"buffer":0,
			"byteOffset":7236,
			"byteLength":29016,
			"target":34962
		},
		{
			"buffer":0,
			"byteOffset":36252,
			"byteLength":29016,
			"target":34962
		},
		{
			"buffer":0,
			"byteOffset":65268,
			"byteLength":108,
			"target":34963
		},
		{
			"buffer":0,
			"byteOffset":65376,
			"byteLength":1296,
			"target":34962
		},
		{
			"buffer":0,
			"byteOffset":66672,
			"byteLength":1296,
			"target":34962
		},
		{
			"buffer":0,
			"byteOffset":67968,
			"byteLength":30,
			"target":34963
		},
		{
			"buffer":0,
			"byteOffset":68000,
			"byteLength":360,
			"target":34962
		},
		{
			"buffer":0,
			"byteOffset":68360,
			"byteLength":360,
			"target":34962
		},
		{
			"buffer":0,
			"byteOffset":68720,
			"byteLength":354,
			"target":34963
		},
		{
			"buffer":0,
			"byteOffset":69076,
			"byteLength":2124,
			"target":34962
		},
		{
			"buffer":0,
			"byteOffset":71200,
			"byteLength":2124,
			"target":34962
		},
		{
			"buffer":0,
			"byteOffset":73324,
			"byteLength":342,
			"target":34963
		},
		{
			"buffer":0,
			"byteOffset":73668,
			"byteLength":2052,
			"target":34962
		},
		{
			"buffer":0,
			"byteOffset":75720,
			"byteLength":2052,
			"target":34962
		}
	],
	"nodes":[
		{
			"children":[1,2,3,4,5,6,7
			],
			"name":"quest_controller_R"
		},
		{
			"name":"a_button",
			"mesh":0
		},
		{
			"name":"b_button",
			"mesh":1
		},
		{
			"name":"body",
			"mesh":2
		},
		{
			"name":"grip_button",
			"mesh":3
		},
		{
			"name":"menu_button",
			"mesh":4
		},
		{
			"name":"thumbstick",
			"mesh":5
		},
		{
			"name":"trigger",
			"mesh":6
		}
	],
	"meshes":[
		{
			"primitives":[
				{
					"attributes":{
						"NORMAL":2,
						"POSITION":1
					},
					"indices":0
				}
			]
		},
		{
			"primitives":[
				{
					"attributes":{
						"NORMAL":5,
						"POSITION":4
					},
					"indices":3
				}
			]
		},
		{
			"primitives":[
				{
					"attributes":{
						"NORMAL":8,
						"POSITION":7
					},
					"indices":6
				}
			]
		},
		{
			"primitives":[
				{
					"attributes":{
						"NORMAL":11,
						"POSITION":10
					},
					"indices":9
				}
			]
		},
		{
			"primitives":[
				{
					"attributes":{
						"NORMAL":14,
						"POSITION":13
					},
					"indices":12
				}
			]
		},
		{
			"primitives":[
				{
					"attributes":{
						"NORMAL":17,
						"POSITION":16
					},
					"indices":15
				}
			]
		},
		{
			"primitives":[
				{
					"attributes":{
						"NORMAL":20,
						"POSITION":19
					},
					"indices":18
				}
			]
		}
	],
	"scenes":[
		{
			"nodes":[0
			]
		}
	],
	"scene":0
}
