{
	"asset":{
		"version":"2.0",
		"generator":"Houdini GLTF 2.0 Exporter"
	},
	"accessors":[
		{
			"bufferView":0,
			"componentType":5123,
			"count":294,
			"type":"SCALAR",
			"min":[0
			],
			"max":[105
			]
		},
		{
			"bufferView":1,
			"componentType":5126,
			"count":106,
			"type":"VEC3",
			"min":[0,0.0407612696,-0.0622081757
			],
			"max":[0,0.0520037711,-0.0375556797
			]
		},
		{
			"bufferView":2,
			"componentType":5121,
			"count":42,
			"type":"SCALAR",
			"min":[0
			],
			"max":[41
			]
		},
		{
			"bufferView":3,
			"componentType":5126,
			"count":42,
			"type":"VEC3",
			"min":[-0.000538306951,0.00483322097,-0.0638447031
			],
			"max":[0.000443104247,0.0614181831,0.00851163268
			]
		},
		{
			"bufferView":4,
			"componentType":5126,
			"count":42,
			"type":"VEC2",
			"min":[0,0
			],
			"max":[1,1
			]
		},
		{
			"bufferView":5,
			"componentType":5123,
			"count":957,
			"type":"SCALAR",
			"min":[0
			],
			"max":[338
			]
		},
		{
			"bufferView":6,
			"componentType":5126,
			"count":339,
			"type":"VEC3",
			"min":[0.0207552835,-0.0637935922,-0.122554421
			],
			"max":[0.0207552835,-0.05252859,-0.0334169194
			]
		},
		{
			"bufferView":7,
			"componentType":5121,
			"count":42,
			"type":"SCALAR",
			"min":[0
			],
			"max":[41
			]
		},
		{
			"bufferView":8,
			"componentType":5126,
			"count":42,
			"type":"VEC3",
			"min":[0.00414392259,-0.0689666346,-0.179853812
			],
			"max":[0.0211882964,-0.0325865746,-0.0323588103
			]
		},
		{
			"bufferView":9,
			"componentType":5126,
			"count":42,
			"type":"VEC2",
			"min":[0,0
			],
			"max":[1,1
			]
		},
		{
			"bufferView":10,
			"componentType":5123,
			"count":321,
			"type":"SCALAR",
			"min":[0
			],
			"max":[110
			]
		},
		{
			"bufferView":11,
			"componentType":5126,
			"count":111,
			"type":"VEC3",
			"min":[0,0.0453351811,0.0989794284
			],
			"max":[0,0.0532626808,0.134701923
			]
		},
		{
			"bufferView":12,
			"componentType":5121,
			"count":42,
			"type":"SCALAR",
			"min":[0
			],
			"max":[41
			]
		},
		{
			"bufferView":13,
			"componentType":5126,
			"count":42,
			"type":"VEC3",
			"min":[-0.00608323421,0.00511579961,0.0315932222
			],
			"max":[0.000500000024,0.0397702157,0.119115621
			]
		},
		{
			"bufferView":14,
			"componentType":5126,
			"count":42,
			"type":"VEC2",
			"min":[0,0
			],
			"max":[1,1
			]
		}
	],
	"buffers":[
		{
			"uri":"quest_anotations_data.bin",
			"byteLength":12472,
			"name":"main_buffer"
		}
	],
	"bufferViews":[
		{
			"buffer":0,
			"byteLength":588,
			"target":34963
		},
		{
			"buffer":0,
			"byteOffset":588,
			"byteLength":1272,
			"target":34962
		},
		{
			"buffer":0,
			"byteOffset":1860,
			"byteLength":42,
			"target":34963
		},
		{
			"buffer":0,
			"byteOffset":1904,
			"byteLength":504,
			"target":34962
		},
		{
			"buffer":0,
			"byteOffset":2408,
			"byteLength":336,
			"target":34962
		},
		{
			"buffer":0,
			"byteOffset":2744,
			"byteLength":1914,
			"target":34963
		},
		{
			"buffer":0,
			"byteOffset":4660,
			"byteLength":4068,
			"target":34962
		},
		{
			"buffer":0,
			"byteOffset":8728,
			"byteLength":42,
			"target":34963
		},
		{
			"buffer":0,
			"byteOffset":8772,
			"byteLength":504,
			"target":34962
		},
		{
			"buffer":0,
			"byteOffset":9276,
			"byteLength":336,
			"target":34962
		},
		{
			"buffer":0,
			"byteOffset":9612,
			"byteLength":642,
			"target":34963
		},
		{
			"buffer":0,
			"byteOffset":10256,
			"byteLength":1332,
			"target":34962
		},
		{
			"buffer":0,
			"byteOffset":11588,
			"byteLength":42,
			"target":34963
		},
		{
			"buffer":0,
			"byteOffset":11632,
			"byteLength":504,
			"target":34962
		},
		{
			"buffer":0,
			"byteOffset":12136,
			"byteLength":336,
			"target":34962
		}
	],
	"nodes":[
		{
			"children":[1,2,3,4,5,6
			],
			"name":"quest_annotations"
		},
		{
			"matrix":[1,0,0,0,0,1,0,0,0,0,1,0,-0.00116647815,0.0193794109,0.0325018764,1
			],
			"name":"move_forward_text",
			"mesh":0
		},
		{
			"matrix":[1,0,0,0,0,1,0,0,0,0,1,0,-0.00116692518,-0.00466217846,0.0321477987,1
			],
			"name":"move_forward_line",
			"mesh":1
		},
		{
			"matrix":[1,0,0,0,0,1,0,0,0,0,1,0,0,0,0.227796212,1
			],
			"name":"switch_theme_text",
			"mesh":2
		},
		{
			"matrix":[1,0,0,0,0,1,0,0,0,0,1,0,-0.000283677131,0,0.227792516,1
			],
			"name":"switch_theme_line",
			"mesh":3
		},
		{
			"matrix":[1,0,0,0,0,1,0,0,0,0,1,0,0.0220892038,-0.00599150732,0.00733191147,1
			],
			"name":"move_back_text",
			"mesh":4
		},
		{
			"matrix":[1,0,0,0,0,1,0,0,0,0,1,0,0.0220528748,-0.00422845781,0.0243391283,1
			],
			"name":"move_back_line",
			"mesh":5
		}
	],
	"meshes":[
		{
			"primitives":[
				{
					"attributes":{
						"POSITION":1
					},
					"indices":0
				}
			]
		},
		{
			"primitives":[
				{
					"attributes":{
						"TEXCOORD_0":4,
						"POSITION":3
					},
					"indices":2
				}
			]
		},
		{
			"primitives":[
				{
					"attributes":{
						"POSITION":6
					},
					"indices":5
				}
			]
		},
		{
			"primitives":[
				{
					"attributes":{
						"TEXCOORD_0":9,
						"POSITION":8
					},
					"indices":7
				}
			]
		},
		{
			"primitives":[
				{
					"attributes":{
						"POSITION":11
					},
					"indices":10
				}
			]
		},
		{
			"primitives":[
				{
					"attributes":{
						"TEXCOORD_0":14,
						"POSITION":13
					},
					"indices":12
				}
			]
		}
	],
	"scenes":[
		{
			"nodes":[0
			]
		}
	],
	"scene":0
}
