{
	"asset":{
		"version":"2.0",
		"generator":"Houdini GLTF 2.0 Exporter"
	},
	"accessors":[
		{
			"bufferView":0,
			"componentType":5123,
			"count":294,
			"type":"SCALAR",
			"min":[0
			],
			"max":[105
			]
		},
		{
			"bufferView":1,
			"componentType":5126,
			"count":106,
			"type":"VEC3",
			"min":[0,0.0407612696,-0.0622081757
			],
			"max":[0,0.0520037711,-0.0375556797
			]
		},
		{
			"bufferView":2,
			"componentType":5121,
			"count":42,
			"type":"SCALAR",
			"min":[0
			],
			"max":[41
			]
		},
		{
			"bufferView":3,
			"componentType":5126,
			"count":42,
			"type":"VEC3",
			"min":[-0.000538307417,0.00478572585,-0.067027159
			],
			"max":[0.000437924376,0.0378170013,0.00841445196
			]
		},
		{
			"bufferView":4,
			"componentType":5126,
			"count":42,
			"type":"VEC2",
			"min":[0,0
			],
			"max":[1,1
			]
		},
		{
			"bufferView":5,
			"componentType":5123,
			"count":957,
			"type":"SCALAR",
			"min":[0
			],
			"max":[338
			]
		},
		{
			"bufferView":6,
			"componentType":5126,
			"count":339,
			"type":"VEC3",
			"min":[0.0207552835,-0.0637935922,-0.122554421
			],
			"max":[0.0207552835,-0.05252859,-0.0334169194
			]
		},
		{
			"bufferView":7,
			"componentType":5121,
			"count":42,
			"type":"SCALAR",
			"min":[0
			],
			"max":[41
			]
		},
		{
			"bufferView":8,
			"componentType":5126,
			"count":42,
			"type":"VEC3",
			"min":[-0.00777869485,-0.0687166378,-0.127651617
			],
			"max":[0.0212120749,-0.0210559368,0.00745096337
			]
		},
		{
			"bufferView":9,
			"componentType":5126,
			"count":42,
			"type":"VEC2",
			"min":[0,0
			],
			"max":[1,1
			]
		},
		{
			"bufferView":10,
			"componentType":5123,
			"count":321,
			"type":"SCALAR",
			"min":[0
			],
			"max":[110
			]
		},
		{
			"bufferView":11,
			"componentType":5126,
			"count":111,
			"type":"VEC3",
			"min":[0,0.0453351811,0.0989794284
			],
			"max":[0,0.0532626808,0.134701923
			]
		},
		{
			"bufferView":12,
			"componentType":5121,
			"count":42,
			"type":"SCALAR",
			"min":[0
			],
			"max":[41
			]
		},
		{
			"bufferView":13,
			"componentType":5126,
			"count":42,
			"type":"VEC3",
			"min":[-0.00608323421,0.00511579961,0.0315932222
			],
			"max":[0.000500000024,0.0397702157,0.12082988
			]
		},
		{
			"bufferView":14,
			"componentType":5126,
			"count":42,
			"type":"VEC2",
			"min":[0,0
			],
			"max":[1,1
			]
		},
		{
			"bufferView":15,
			"componentType":5123,
			"count":324,
			"type":"SCALAR",
			"min":[0
			],
			"max":[323
			]
		},
		{
			"bufferView":16,
			"componentType":5126,
			"count":324,
			"type":"VEC3",
			"min":[-0.00373858958,-0.00552958343,-0.00992365833
			],
			"max":[0.00678696716,-0.00108371757,0.000630038965
			]
		},
		{
			"bufferView":17,
			"componentType":5126,
			"count":324,
			"type":"VEC3",
			"min":[-0.999785721,-0.142891288,-0.988613129
			],
			"max":[0.999785781,0.99467665,0.977629066
			]
		},
		{
			"bufferView":18,
			"componentType":5126,
			"count":324,
			"type":"VEC2",
			"min":[0.0100263963,0.353826284
			],
			"max":[0.402596831,0.897588253
			]
		},
		{
			"bufferView":19,
			"componentType":5126,
			"count":324,
			"type":"VEC4",
			"min":[-0.00864560809,-0.00518280361,-0.00894831214,1
			],
			"max":[0.00991848577,0.00999771897,0.00782399997,1
			]
		},
		{
			"bufferView":20,
			"componentType":5123,
			"count":324,
			"type":"SCALAR",
			"min":[0
			],
			"max":[323
			]
		},
		{
			"bufferView":21,
			"componentType":5126,
			"count":324,
			"type":"VEC3",
			"min":[-0.00777547946,-0.00315974886,0.00393096125
			],
			"max":[0.00275537674,0.00120699639,0.0144646596
			]
		},
		{
			"bufferView":22,
			"componentType":5126,
			"count":324,
			"type":"VEC3",
			"min":[-0.999816537,-0.133704871,-0.987630367
			],
			"max":[0.999816597,0.993455708,0.97764653
			]
		},
		{
			"bufferView":23,
			"componentType":5126,
			"count":324,
			"type":"VEC2",
			"min":[0.00922612567,0.224380553
			],
			"max":[0.433889359,0.571324587
			]
		},
		{
			"bufferView":24,
			"componentType":5126,
			"count":324,
			"type":"VEC4",
			"min":[-0.00868323166,-0.00495682098,-0.00897628255,1
			],
			"max":[0.00949757174,0.00999646168,0.00794291496,1
			]
		},
		{
			"bufferView":25,
			"componentType":5123,
			"count":4344,
			"type":"SCALAR",
			"min":[0
			],
			"max":[4343
			]
		},
		{
			"bufferView":26,
			"componentType":5126,
			"count":4344,
			"type":"VEC3",
			"min":[-0.0210753083,-0.0675957128,-0.0714270771
			],
			"max":[0.054776758,0.0580875352,0.0360149406
			]
		},
		{
			"bufferView":27,
			"componentType":5126,
			"count":4344,
			"type":"VEC3",
			"min":[-0.999206722,-0.99634099,-0.99846524
			],
			"max":[0.997601509,0.997572243,0.999942899
			]
		},
		{
			"bufferView":28,
			"componentType":5126,
			"count":4344,
			"type":"VEC2",
			"min":[0.00810316391,0.00867933035
			],
			"max":[0.993055284,0.994646549
			]
		},
		{
			"bufferView":29,
			"componentType":5126,
			"count":4344,
			"type":"VEC4",
			"min":[-0.00999166351,-0.00999077316,-0.00999203697,1
			],
			"max":[0.00995374471,0.00999954622,0.00950113777,1
			]
		},
		{
			"bufferView":30,
			"componentType":5123,
			"count":924,
			"type":"SCALAR",
			"min":[0
			],
			"max":[923
			]
		},
		{
			"bufferView":31,
			"componentType":5126,
			"count":924,
			"type":"VEC3",
			"min":[-0.00975637697,-0.0392773673,-0.0348738693
			],
			"max":[0.00287025329,-0.0201027915,-0.00999422278
			]
		},
		{
			"bufferView":32,
			"componentType":5126,
			"count":924,
			"type":"VEC3",
			"min":[-0.999697268,-0.994175375,-0.965785682
			],
			"max":[0.195597917,0.99955529,0.990584254
			]
		},
		{
			"bufferView":33,
			"componentType":5126,
			"count":924,
			"type":"VEC2",
			"min":[0.49584958,0.572045505
			],
			"max":[0.9920789,0.867560029
			]
		},
		{
			"bufferView":34,
			"componentType":5126,
			"count":924,
			"type":"VEC4",
			"min":[-0.00999599136,-0.00999984518,-0.00999619067,1
			],
			"max":[0.00969759747,0.00955987535,0.00880798139,1
			]
		},
		{
			"bufferView":35,
			"componentType":5123,
			"count":156,
			"type":"SCALAR",
			"min":[0
			],
			"max":[155
			]
		},
		{
			"bufferView":36,
			"componentType":5126,
			"count":156,
			"type":"VEC3",
			"min":[0.00481916359,-0.00704234606,-0.0279533286
			],
			"max":[0.0141808577,-0.00597364875,-0.0184485968
			]
		},
		{
			"bufferView":37,
			"componentType":5126,
			"count":156,
			"type":"VEC3",
			"min":[-0.984875143,-0.000747698767,-0.99999994
			],
			"max":[0.984875143,0.999999821,0.99999994
			]
		},
		{
			"bufferView":38,
			"componentType":5126,
			"count":156,
			"type":"VEC2",
			"min":[0.691110134,0.418606579
			],
			"max":[0.990890443,0.885393977
			]
		},
		{
			"bufferView":39,
			"componentType":5126,
			"count":156,
			"type":"VEC4",
			"min":[-0.00999999605,-7.46927162e-06,-0.00984875299,1
			],
			"max":[0.00999999605,7.47523245e-06,0.00984875206,1
			]
		},
		{
			"bufferView":40,
			"componentType":5123,
			"count":777,
			"type":"SCALAR",
			"min":[0
			],
			"max":[776
			]
		},
		{
			"bufferView":41,
			"componentType":5126,
			"count":777,
			"type":"VEC3",
			"min":[0.00952241477,-0.0034163075,0.00156039419
			],
			"max":[0.0263595283,0.00946787093,0.018172726
			]
		},
		{
			"bufferView":42,
			"componentType":5126,
			"count":777,
			"type":"VEC3",
			"min":[-0.993339241,-0.820640385,-0.969467819
			],
			"max":[0.992161751,0.99222213,0.988099039
			]
		},
		{
			"bufferView":43,
			"componentType":5126,
			"count":777,
			"type":"VEC2",
			"min":[0.00763705606,0.767862022
			],
			"max":[0.450354517,0.973301351
			]
		},
		{
			"bufferView":44,
			"componentType":5126,
			"count":777,
			"type":"VEC4",
			"min":[-0.00999999885,-0.00848887116,-0.00992455427,1
			],
			"max":[0.00998257007,0.00707597006,0.00994114112,1
			]
		},
		{
			"bufferView":45,
			"componentType":5123,
			"count":1050,
			"type":"SCALAR",
			"min":[0
			],
			"max":[1049
			]
		},
		{
			"bufferView":46,
			"componentType":5126,
			"count":1050,
			"type":"VEC3",
			"min":[-0.00356398593,-0.0333695896,0.0130631067
			],
			"max":[0.0225639734,-0.00846743584,0.0300525874
			]
		},
		{
			"bufferView":47,
			"componentType":5126,
			"count":1050,
			"type":"VEC3",
			"min":[-0.999799967,-0.999994278,-0.280324727
			],
			"max":[0.999799967,0.857912123,0.998526633
			]
		},
		{
			"bufferView":48,
			"componentType":5126,
			"count":1050,
			"type":"VEC2",
			"min":[0.868642926,0.0105340481
			],
			"max":[0.992079616,0.828211784
			]
		},
		{
			"bufferView":49,
			"componentType":5126,
			"count":1050,
			"type":"VEC4",
			"min":[-0.00366768055,-0.00708545325,-0.00992561039,1
			],
			"max":[0.00999999419,0.00495565869,0.00999994203,1
			]
		}
	],
	"buffers":[
		{
			"uri":"quest_anotations_data.bin",
			"byteLength":407424,
			"name":"main_buffer"
		}
	],
	"bufferViews":[
		{
			"buffer":0,
			"byteLength":588,
			"target":34963
		},
		{
			"buffer":0,
			"byteOffset":588,
			"byteLength":1272,
			"target":34962
		},
		{
			"buffer":0,
			"byteOffset":1860,
			"byteLength":42,
			"target":34963
		},
		{
			"buffer":0,
			"byteOffset":1904,
			"byteLength":504,
			"target":34962
		},
		{
			"buffer":0,
			"byteOffset":2408,
			"byteLength":336,
			"target":34962
		},
		{
			"buffer":0,
			"byteOffset":2744,
			"byteLength":1914,
			"target":34963
		},
		{
			"buffer":0,
			"byteOffset":4660,
			"byteLength":4068,
			"target":34962
		},
		{
			"buffer":0,
			"byteOffset":8728,
			"byteLength":42,
			"target":34963
		},
		{
			"buffer":0,
			"byteOffset":8772,
			"byteLength":504,
			"target":34962
		},
		{
			"buffer":0,
			"byteOffset":9276,
			"byteLength":336,
			"target":34962
		},
		{
			"buffer":0,
			"byteOffset":9612,
			"byteLength":642,
			"target":34963
		},
		{
			"buffer":0,
			"byteOffset":10256,
			"byteLength":1332,
			"target":34962
		},
		{
			"buffer":0,
			"byteOffset":11588,
			"byteLength":42,
			"target":34963
		},
		{
			"buffer":0,
			"byteOffset":11632,
			"byteLength":504,
			"target":34962
		},
		{
			"buffer":0,
			"byteOffset":12136,
			"byteLength":336,
			"target":34962
		},
		{
			"buffer":0,
			"byteOffset":12472,
			"byteLength":648,
			"target":34963
		},
		{
			"buffer":0,
			"byteOffset":13120,
			"byteLength":3888,
			"target":34962
		},
		{
			"buffer":0,
			"byteOffset":17008,
			"byteLength":3888,
			"target":34962
		},
		{
			"buffer":0,
			"byteOffset":20896,
			"byteLength":2592,
			"target":34962
		},
		{
			"buffer":0,
			"byteOffset":23488,
			"byteLength":5184,
			"target":34962
		},
		{
			"buffer":0,
			"byteOffset":28672,
			"byteLength":648,
			"target":34963
		},
		{
			"buffer":0,
			"byteOffset":29320,
			"byteLength":3888,
			"target":34962
		},
		{
			"buffer":0,
			"byteOffset":33208,
			"byteLength":3888,
			"target":34962
		},
		{
			"buffer":0,
			"byteOffset":37096,
			"byteLength":2592,
			"target":34962
		},
		{
			"buffer":0,
			"byteOffset":39688,
			"byteLength":5184,
			"target":34962
		},
		{
			"buffer":0,
			"byteOffset":44872,
			"byteLength":8688,
			"target":34963
		},
		{
			"buffer":0,
			"byteOffset":53560,
			"byteLength":52128,
			"target":34962
		},
		{
			"buffer":0,
			"byteOffset":105688,
			"byteLength":52128,
			"target":34962
		},
		{
			"buffer":0,
			"byteOffset":157816,
			"byteLength":34752,
			"target":34962
		},
		{
			"buffer":0,
			"byteOffset":192568,
			"byteLength":69504,
			"target":34962
		},
		{
			"buffer":0,
			"byteOffset":262072,
			"byteLength":1848,
			"target":34963
		},
		{
			"buffer":0,
			"byteOffset":263920,
			"byteLength":11088,
			"target":34962
		},
		{
			"buffer":0,
			"byteOffset":275008,
			"byteLength":11088,
			"target":34962
		},
		{
			"buffer":0,
			"byteOffset":286096,
			"byteLength":7392,
			"target":34962
		},
		{
			"buffer":0,
			"byteOffset":293488,
			"byteLength":14784,
			"target":34962
		},
		{
			"buffer":0,
			"byteOffset":308272,
			"byteLength":312,
			"target":34963
		},
		{
			"buffer":0,
			"byteOffset":308584,
			"byteLength":1872,
			"target":34962
		},
		{
			"buffer":0,
			"byteOffset":310456,
			"byteLength":1872,
			"target":34962
		},
		{
			"buffer":0,
			"byteOffset":312328,
			"byteLength":1248,
			"target":34962
		},
		{
			"buffer":0,
			"byteOffset":313576,
			"byteLength":2496,
			"target":34962
		},
		{
			"buffer":0,
			"byteOffset":316072,
			"byteLength":1554,
			"target":34963
		},
		{
			"buffer":0,
			"byteOffset":317628,
			"byteLength":9324,
			"target":34962
		},
		{
			"buffer":0,
			"byteOffset":326952,
			"byteLength":9324,
			"target":34962
		},
		{
			"buffer":0,
			"byteOffset":336276,
			"byteLength":6216,
			"target":34962
		},
		{
			"buffer":0,
			"byteOffset":342492,
			"byteLength":12432,
			"target":34962
		},
		{
			"buffer":0,
			"byteOffset":354924,
			"byteLength":2100,
			"target":34963
		},
		{
			"buffer":0,
			"byteOffset":357024,
			"byteLength":12600,
			"target":34962
		},
		{
			"buffer":0,
			"byteOffset":369624,
			"byteLength":12600,
			"target":34962
		},
		{
			"buffer":0,
			"byteOffset":382224,
			"byteLength":8400,
			"target":34962
		},
		{
			"buffer":0,
			"byteOffset":390624,
			"byteLength":16800,
			"target":34962
		}
	],
	"nodes":[
		{
			"children":[16,17,18,19,20,21
			],
			"name":"quest_annotations"
		},
		{
			"children":[2,3,4,5,6,7
			],
			"name":"go_annotations"
		},
		{
			"name":"move_forward_text"
		},
		{
			"name":"move_forward_line"
		},
		{
			"name":"switch_theme_text"
		},
		{
			"name":"switch_theme_line"
		},
		{
			"name":"move_back_text"
		},
		{
			"name":"move_back_line"
		},
		{
			"children":[9,10,11,12,13
			],
			"matrix":[0.930770218,-0.288439542,0.224654019,0,0.280387968,0.957498133,0.0676754341,0,-0.23462607,0,0.972085714,0,0,0,0,1
			],
			"name":"go_controller"
		},
		{
			"matrix":[0.00999999978,0,0,0,0,-1.68587388e-09,0.00999999978,0,0,-0.00999999978,-1.68587388e-09,0,0,0,1.77635684e-15,1
			],
			"name":"oculus_go_button_home"
		},
		{
			"matrix":[0.00999999978,0,0,0,0,-1.68587388e-09,0.00999999978,0,0,-0.00999999978,-1.68587388e-09,0,0,0,1.77635684e-15,1
			],
			"name":"oculus_go_button_back"
		},
		{
			"matrix":[0.00999999978,0,0,0,0,-1.68587388e-09,0.00999999978,0,0,-0.00999999978,-1.68587388e-09,0,0,0,1.77635684e-15,1
			],
			"name":"oculus_go_button_trigger"
		},
		{
			"matrix":[0.00999999978,0,0,0,0,-1.68587388e-09,0.00999999978,0,0,-0.00999999978,-1.68587388e-09,0,0,0,1.77635684e-15,1
			],
			"name":"oculus_go_controller"
		},
		{
			"matrix":[0.00999999978,0,0,0,0,-1.68587388e-09,0.00999999978,0,0,-0.00999999978,-1.68587388e-09,0,0,0,1.77635684e-15,1
			],
			"name":"oculus_go_touchpad"
		},
		{
			"matrix":[0.0492729247,-4.30126912e-09,-0.998785377,0,0.0185056012,0.999828339,0.000912929652,0,0.998613894,-0.0185281057,0.0492644645,0,0.453550637,0.02064302,0.00646419916,1
			],
			"name":"cam1"
		},
		{
			"matrix":[-0.934564948,0.220274955,-0.279405266,0,0.247898206,0.966448486,-0.0672591925,0,0.255215287,-0.132122144,-0.957814634,0,0.0032933699,0.00243558083,0.0379170515,1
			],
			"name":"quest_contoller"
		},
		{
			"matrix":[1,0,0,0,0,1,0,0,0,0,1,0,0.00891441666,-0.00175610185,0.0180656239,1
			],
			"name":"move_forward_text",
			"mesh":0
		},
		{
			"matrix":[1,0,0,0,0,1,0,0,0,0,1,0,0.00891441666,-0.00175610185,0.0180656239,1
			],
			"name":"move_forward_line",
			"mesh":1
		},
		{
			"name":"switch_theme_text",
			"mesh":2
		},
		{
			"name":"switch_theme_line",
			"mesh":3
		},
		{
			"matrix":[1,0,0,0,0,1,0,0,0,0,1,0,-0.0042030029,0.00677566603,-0.0170079023,1
			],
			"name":"move_back_text",
			"mesh":4
		},
		{
			"matrix":[1,0,0,0,0,1,0,0,0,0,1,0,-0.0042030029,0.00780617446,0,1
			],
			"name":"move_back_line",
			"mesh":5
		},
		{
			"children":[23,24,25,26,27,28,29
			],
			"matrix":[-0.934564948,0.220274955,-0.279405266,0,0.247898206,0.966448486,-0.0672591925,0,0.255215287,-0.132122144,-0.957814634,0,0.0032933699,0.00243558083,0.0379170515,1
			],
			"name":"quest_controller_split"
		},
		{
			"name":"a_button",
			"mesh":6
		},
		{
			"name":"b_button",
			"mesh":7
		},
		{
			"name":"body",
			"mesh":8
		},
		{
			"name":"grip_button",
			"mesh":9
		},
		{
			"name":"menu_button",
			"mesh":10
		},
		{
			"name":"thumstick",
			"mesh":11
		},
		{
			"name":"trigger",
			"mesh":12
		}
	],
	"meshes":[
		{
			"primitives":[
				{
					"attributes":{
						"POSITION":1
					},
					"indices":0
				}
			]
		},
		{
			"primitives":[
				{
					"attributes":{
						"TEXCOORD_0":4,
						"POSITION":3
					},
					"indices":2
				}
			]
		},
		{
			"primitives":[
				{
					"attributes":{
						"POSITION":6
					},
					"indices":5
				}
			]
		},
		{
			"primitives":[
				{
					"attributes":{
						"TEXCOORD_0":9,
						"POSITION":8
					},
					"indices":7
				}
			]
		},
		{
			"primitives":[
				{
					"attributes":{
						"POSITION":11
					},
					"indices":10
				}
			]
		},
		{
			"primitives":[
				{
					"attributes":{
						"TEXCOORD_0":14,
						"POSITION":13
					},
					"indices":12
				}
			]
		},
		{
			"primitives":[
				{
					"attributes":{
						"TANGENT":19,
						"TEXCOORD_0":18,
						"NORMAL":17,
						"POSITION":16
					},
					"indices":15
				}
			]
		},
		{
			"primitives":[
				{
					"attributes":{
						"TANGENT":24,
						"TEXCOORD_0":23,
						"NORMAL":22,
						"POSITION":21
					},
					"indices":20
				}
			]
		},
		{
			"primitives":[
				{
					"attributes":{
						"TANGENT":29,
						"TEXCOORD_0":28,
						"NORMAL":27,
						"POSITION":26
					},
					"indices":25
				}
			]
		},
		{
			"primitives":[
				{
					"attributes":{
						"TANGENT":34,
						"TEXCOORD_0":33,
						"NORMAL":32,
						"POSITION":31
					},
					"indices":30
				}
			]
		},
		{
			"primitives":[
				{
					"attributes":{
						"TANGENT":39,
						"TEXCOORD_0":38,
						"NORMAL":37,
						"POSITION":36
					},
					"indices":35
				}
			]
		},
		{
			"primitives":[
				{
					"attributes":{
						"TANGENT":44,
						"TEXCOORD_0":43,
						"NORMAL":42,
						"POSITION":41
					},
					"indices":40
				}
			]
		},
		{
			"primitives":[
				{
					"attributes":{
						"TANGENT":49,
						"TEXCOORD_0":48,
						"NORMAL":47,
						"POSITION":46
					},
					"indices":45
				}
			]
		}
	],
	"scenes":[
		{
			"nodes":[0
			]
		}
	],
	"scene":0
}
