{
	"asset":{
		"version":"2.0",
		"generator":"Houdini GLTF 2.0 Exporter"
	},
	"accessors":[
		{
			"bufferView":0,
			"componentType":5123,
			"count":888,
			"type":"SCALAR",
			"min":[0
			],
			"max":[307
			]
		},
		{
			"bufferView":1,
			"componentType":5126,
			"count":308,
			"type":"VEC3",
			"min":[0,0.0407500193,-0.128997922
			],
			"max":[0,0.0520150214,-0.0367254242
			]
		},
		{
			"bufferView":2,
			"componentType":5121,
			"count":42,
			"type":"SCALAR",
			"min":[0
			],
			"max":[41
			]
		},
		{
			"bufferView":3,
			"componentType":5126,
			"count":42,
			"type":"VEC3",
			"min":[-0.000500000082,0.00463943463,-0.131386787
			],
			"max":[0.00025977919,0.0373962447,0.00837452989
			]
		},
		{
			"bufferView":4,
			"componentType":5126,
			"count":42,
			"type":"VEC2",
			"min":[0,0
			],
			"max":[1,1
			]
		},
		{
			"bufferView":5,
			"componentType":5123,
			"count":957,
			"type":"SCALAR",
			"min":[0
			],
			"max":[338
			]
		},
		{
			"bufferView":6,
			"componentType":5126,
			"count":339,
			"type":"VEC3",
			"min":[0.0207552835,-0.0637935922,-0.122554421
			],
			"max":[0.0207552835,-0.05252859,-0.0334169194
			]
		},
		{
			"bufferView":7,
			"componentType":5121,
			"count":42,
			"type":"SCALAR",
			"min":[0
			],
			"max":[41
			]
		},
		{
			"bufferView":8,
			"componentType":5126,
			"count":42,
			"type":"VEC3",
			"min":[-0.00777869485,-0.0687166378,-0.127651617
			],
			"max":[0.0212120749,-0.0210559368,0.00745096337
			]
		},
		{
			"bufferView":9,
			"componentType":5126,
			"count":42,
			"type":"VEC2",
			"min":[0,0
			],
			"max":[1,1
			]
		},
		{
			"bufferView":10,
			"componentType":5123,
			"count":711,
			"type":"SCALAR",
			"min":[0
			],
			"max":[244
			]
		},
		{
			"bufferView":11,
			"componentType":5126,
			"count":245,
			"type":"VEC3",
			"min":[0,0.0436626785,0.0812344253
			],
			"max":[0,0.0549276769,0.152446926
			]
		},
		{
			"bufferView":12,
			"componentType":5121,
			"count":42,
			"type":"SCALAR",
			"min":[0
			],
			"max":[41
			]
		},
		{
			"bufferView":13,
			"componentType":5126,
			"count":42,
			"type":"VEC3",
			"min":[-0.00608323421,0.00511579961,0.0315932222
			],
			"max":[0.000500000024,0.0397702157,0.154694885
			]
		},
		{
			"bufferView":14,
			"componentType":5126,
			"count":42,
			"type":"VEC2",
			"min":[0,0
			],
			"max":[1,1
			]
		},
		{
			"bufferView":15,
			"componentType":5123,
			"count":240,
			"type":"SCALAR",
			"min":[0
			],
			"max":[239
			]
		},
		{
			"bufferView":16,
			"componentType":5126,
			"count":240,
			"type":"VEC3",
			"min":[-0.368663788,5.80412674,-0.28107366
			],
			"max":[0.368663788,6.54144669,-0.234508961
			]
		},
		{
			"bufferView":17,
			"componentType":5126,
			"count":240,
			"type":"VEC3",
			"min":[-0.997808874,-0.997807026,-1
			],
			"max":[0.997808933,0.997811794,0
			]
		},
		{
			"bufferView":18,
			"componentType":5126,
			"count":240,
			"type":"VEC2",
			"min":[0.751088381,0.550224185
			],
			"max":[0.831592202,0.630481005
			]
		},
		{
			"bufferView":19,
			"componentType":5126,
			"count":240,
			"type":"VEC4",
			"min":[-1.72390529e-08,-0.506597757,-0.999998689,1
			],
			"max":[0.99984628,0.531964064,0.999998689,1
			]
		},
		{
			"bufferView":20,
			"componentType":5126,
			"count":240,
			"type":"VEC2",
			"min":[0.756893098,0.557283223
			],
			"max":[0.825970292,0.62636143
			]
		},
		{
			"bufferView":21,
			"componentType":5123,
			"count":336,
			"type":"SCALAR",
			"min":[0
			],
			"max":[335
			]
		},
		{
			"bufferView":22,
			"componentType":5126,
			"count":336,
			"type":"VEC3",
			"min":[-0.356872559,4.90732193,-0.333842486
			],
			"max":[0.356872559,5.62108231,-0.234508961
			]
		},
		{
			"bufferView":23,
			"componentType":5126,
			"count":336,
			"type":"VEC3",
			"min":[-0.997809172,-0.997807443,-1
			],
			"max":[0.997809172,0.997809887,0
			]
		},
		{
			"bufferView":24,
			"componentType":5126,
			"count":336,
			"type":"VEC2",
			"min":[0.75056839,0.467252851
			],
			"max":[0.832897425,0.549294472
			]
		},
		{
			"bufferView":25,
			"componentType":5126,
			"count":336,
			"type":"VEC4",
			"min":[-0.00358900963,-0.52890867,-0.999856412,1
			],
			"max":[0.999782741,0.575532436,0.999893308,1
			]
		},
		{
			"bufferView":26,
			"componentType":5126,
			"count":336,
			"type":"VEC2",
			"min":[0.75849092,0.47616154
			],
			"max":[0.82437253,0.542043209
			]
		},
		{
			"bufferView":27,
			"componentType":5123,
			"count":1164,
			"type":"SCALAR",
			"min":[0
			],
			"max":[1163
			]
		},
		{
			"bufferView":28,
			"componentType":5126,
			"count":1164,
			"type":"VEC3",
			"min":[-1.41491699,0.323184729,0.920245886
			],
			"max":[1.41491699,1.83247733,3.52202201
			]
		},
		{
			"bufferView":29,
			"componentType":5126,
			"count":1164,
			"type":"VEC3",
			"min":[-0.997337461,-0.982311726,-0.996819973
			],
			"max":[0.997337461,0.998472154,0.999625146
			]
		},
		{
			"bufferView":30,
			"componentType":5126,
			"count":1164,
			"type":"VEC2",
			"min":[0.354370892,0.354370892
			],
			"max":[0.645629108,0.645629108
			]
		},
		{
			"bufferView":31,
			"componentType":5126,
			"count":1164,
			"type":"VEC4",
			"min":[-1,-0.999091744,-0.992604494,1
			],
			"max":[1,0.999997199,0.982963979,1
			]
		},
		{
			"bufferView":32,
			"componentType":5126,
			"count":1164,
			"type":"VEC2",
			"min":[0.0279666372,0.0608844161
			],
			"max":[0.568226755,0.977664053
			]
		},
		{
			"bufferView":33,
			"componentType":5123,
			"count":8142,
			"type":"SCALAR",
			"min":[0
			],
			"max":[8141
			]
		},
		{
			"bufferView":34,
			"componentType":5126,
			"count":8142,
			"type":"VEC3",
			"min":[-2.12849426,-0.0389978886,-0.265911311
			],
			"max":[2.12849426,11.912632,6.02943802
			]
		},
		{
			"bufferView":35,
			"componentType":5126,
			"count":8142,
			"type":"VEC3",
			"min":[-1,-1,-1
			],
			"max":[1,1,0.999891341
			]
		},
		{
			"bufferView":36,
			"componentType":5126,
			"count":8142,
			"type":"VEC2",
			"min":[0.313852072,0.32383883
			],
			"max":[0.675029516,0.547608972
			]
		},
		{
			"bufferView":37,
			"componentType":5126,
			"count":8142,
			"type":"VEC4",
			"min":[-1,-1,-0.999887824,1
			],
			"max":[1,1,0.999902427,1
			]
		},
		{
			"bufferView":38,
			"componentType":5126,
			"count":8142,
			"type":"VEC2",
			"min":[0.0114450743,0.0155626535
			],
			"max":[0.990448415,0.984387875
			]
		},
		{
			"bufferView":39,
			"componentType":5123,
			"count":600,
			"type":"SCALAR",
			"min":[0
			],
			"max":[599
			]
		},
		{
			"bufferView":40,
			"componentType":5126,
			"count":600,
			"type":"VEC3",
			"min":[-1.86799622,0.201755285,-0.265911311
			],
			"max":[1.86799622,3.93772864,-0.228133649
			]
		},
		{
			"bufferView":41,
			"componentType":5126,
			"count":600,
			"type":"VEC3",
			"min":[-1,-1,-1
			],
			"max":[1,1,0
			]
		},
		{
			"bufferView":42,
			"componentType":5126,
			"count":600,
			"type":"VEC2",
			"min":[0.515148818,0.0564253926
			],
			"max":[0.953099251,0.474291861
			]
		},
		{
			"bufferView":43,
			"componentType":5126,
			"count":600,
			"type":"VEC4",
			"min":[-1,-1,-2.16893281e-09,1
			],
			"max":[1,1,2.1689528e-09,1
			]
		}
	],
	"buffers":[
		{
			"uri":"annotations_data.bin",
			"byteLength":621628,
			"name":"main_buffer"
		}
	],
	"bufferViews":[
		{
			"buffer":0,
			"byteLength":1776,
			"target":34963
		},
		{
			"buffer":0,
			"byteOffset":1776,
			"byteLength":3696,
			"target":34962
		},
		{
			"buffer":0,
			"byteOffset":5472,
			"byteLength":42,
			"target":34963
		},
		{
			"buffer":0,
			"byteOffset":5516,
			"byteLength":504,
			"target":34962
		},
		{
			"buffer":0,
			"byteOffset":6020,
			"byteLength":336,
			"target":34962
		},
		{
			"buffer":0,
			"byteOffset":6356,
			"byteLength":1914,
			"target":34963
		},
		{
			"buffer":0,
			"byteOffset":8272,
			"byteLength":4068,
			"target":34962
		},
		{
			"buffer":0,
			"byteOffset":12340,
			"byteLength":42,
			"target":34963
		},
		{
			"buffer":0,
			"byteOffset":12384,
			"byteLength":504,
			"target":34962
		},
		{
			"buffer":0,
			"byteOffset":12888,
			"byteLength":336,
			"target":34962
		},
		{
			"buffer":0,
			"byteOffset":13224,
			"byteLength":1422,
			"target":34963
		},
		{
			"buffer":0,
			"byteOffset":14648,
			"byteLength":2940,
			"target":34962
		},
		{
			"buffer":0,
			"byteOffset":17588,
			"byteLength":42,
			"target":34963
		},
		{
			"buffer":0,
			"byteOffset":17632,
			"byteLength":504,
			"target":34962
		},
		{
			"buffer":0,
			"byteOffset":18136,
			"byteLength":336,
			"target":34962
		},
		{
			"buffer":0,
			"byteOffset":18472,
			"byteLength":480,
			"target":34963
		},
		{
			"buffer":0,
			"byteOffset":18952,
			"byteLength":2880,
			"target":34962
		},
		{
			"buffer":0,
			"byteOffset":21832,
			"byteLength":2880,
			"target":34962
		},
		{
			"buffer":0,
			"byteOffset":24712,
			"byteLength":1920,
			"target":34962
		},
		{
			"buffer":0,
			"byteOffset":26632,
			"byteLength":3840,
			"target":34962
		},
		{
			"buffer":0,
			"byteOffset":30472,
			"byteLength":1920,
			"target":34962
		},
		{
			"buffer":0,
			"byteOffset":32392,
			"byteLength":672,
			"target":34963
		},
		{
			"buffer":0,
			"byteOffset":33064,
			"byteLength":4032,
			"target":34962
		},
		{
			"buffer":0,
			"byteOffset":37096,
			"byteLength":4032,
			"target":34962
		},
		{
			"buffer":0,
			"byteOffset":41128,
			"byteLength":2688,
			"target":34962
		},
		{
			"buffer":0,
			"byteOffset":43816,
			"byteLength":5376,
			"target":34962
		},
		{
			"buffer":0,
			"byteOffset":49192,
			"byteLength":2688,
			"target":34962
		},
		{
			"buffer":0,
			"byteOffset":51880,
			"byteLength":2328,
			"target":34963
		},
		{
			"buffer":0,
			"byteOffset":54208,
			"byteLength":13968,
			"target":34962
		},
		{
			"buffer":0,
			"byteOffset":68176,
			"byteLength":13968,
			"target":34962
		},
		{
			"buffer":0,
			"byteOffset":82144,
			"byteLength":9312,
			"target":34962
		},
		{
			"buffer":0,
			"byteOffset":91456,
			"byteLength":18624,
			"target":34962
		},
		{
			"buffer":0,
			"byteOffset":110080,
			"byteLength":9312,
			"target":34962
		},
		{
			"buffer":0,
			"byteOffset":119392,
			"byteLength":16284,
			"target":34963
		},
		{
			"buffer":0,
			"byteOffset":135676,
			"byteLength":97704,
			"target":34962
		},
		{
			"buffer":0,
			"byteOffset":233380,
			"byteLength":97704,
			"target":34962
		},
		{
			"buffer":0,
			"byteOffset":331084,
			"byteLength":65136,
			"target":34962
		},
		{
			"buffer":0,
			"byteOffset":396220,
			"byteLength":130272,
			"target":34962
		},
		{
			"buffer":0,
			"byteOffset":526492,
			"byteLength":65136,
			"target":34962
		},
		{
			"buffer":0,
			"byteOffset":591628,
			"byteLength":1200,
			"target":34963
		},
		{
			"buffer":0,
			"byteOffset":592828,
			"byteLength":7200,
			"target":34962
		},
		{
			"buffer":0,
			"byteOffset":600028,
			"byteLength":7200,
			"target":34962
		},
		{
			"buffer":0,
			"byteOffset":607228,
			"byteLength":4800,
			"target":34962
		},
		{
			"buffer":0,
			"byteOffset":612028,
			"byteLength":9600,
			"target":34962
		}
	],
	"nodes":[
		{
			"children":[1,2,3,4,5,6
			],
			"name":"annotations"
		},
		{
			"name":"move_forward_text",
			"mesh":0
		},
		{
			"name":"move_forward_line",
			"mesh":1
		},
		{
			"name":"switch_theme_text",
			"mesh":2
		},
		{
			"name":"switch_theme_line",
			"mesh":3
		},
		{
			"name":"move_back_text",
			"mesh":4
		},
		{
			"name":"move_back_line",
			"mesh":5
		},
		{
			"children":[8,9,10,11,12
			],
			"matrix":[0.930770218,-0.288439542,0.224654019,0,0.280387968,0.957498133,0.0676754341,0,-0.23462607,0,0.972085714,0,0,0,0,1
			],
			"name":"oculus-go-controller"
		},
		{
			"matrix":[0.00999999978,0,0,0,0,-1.68587388e-09,0.00999999978,0,0,-0.00999999978,-1.68587388e-09,0,0,0,1.77635684e-15,1
			],
			"name":"oculus_go_button_home",
			"mesh":6
		},
		{
			"matrix":[0.00999999978,0,0,0,0,-1.68587388e-09,0.00999999978,0,0,-0.00999999978,-1.68587388e-09,0,0,0,1.77635684e-15,1
			],
			"name":"oculus_go_button_back",
			"mesh":7
		},
		{
			"matrix":[0.00999999978,0,0,0,0,-1.68587388e-09,0.00999999978,0,0,-0.00999999978,-1.68587388e-09,0,0,0,1.77635684e-15,1
			],
			"name":"oculus_go_button_trigger",
			"mesh":8
		},
		{
			"matrix":[0.00999999978,0,0,0,0,-1.68587388e-09,0.00999999978,0,0,-0.00999999978,-1.68587388e-09,0,0,0,1.77635684e-15,1
			],
			"name":"oculus_go_controller",
			"mesh":9
		},
		{
			"matrix":[0.00999999978,0,0,0,0,-1.68587388e-09,0.00999999978,0,0,-0.00999999978,-1.68587388e-09,0,0,0,1.77635684e-15,1
			],
			"name":"oculus_go_touchpad",
			"mesh":10
		},
		{
			"matrix":[0.0492729247,-4.30126912e-09,-0.998785377,0,0.0185056012,0.999828339,0.000912929652,0,0.998613894,-0.0185281057,0.0492644645,0,0.453550637,0.02064302,0.00646419916,1
			],
			"name":"cam1"
		}
	],
	"meshes":[
		{
			"primitives":[
				{
					"attributes":{
						"POSITION":1
					},
					"indices":0
				}
			]
		},
		{
			"primitives":[
				{
					"attributes":{
						"TEXCOORD_0":4,
						"POSITION":3
					},
					"indices":2
				}
			]
		},
		{
			"primitives":[
				{
					"attributes":{
						"POSITION":6
					},
					"indices":5
				}
			]
		},
		{
			"primitives":[
				{
					"attributes":{
						"TEXCOORD_0":9,
						"POSITION":8
					},
					"indices":7
				}
			]
		},
		{
			"primitives":[
				{
					"attributes":{
						"POSITION":11
					},
					"indices":10
				}
			]
		},
		{
			"primitives":[
				{
					"attributes":{
						"TEXCOORD_0":14,
						"POSITION":13
					},
					"indices":12
				}
			]
		},
		{
			"primitives":[
				{
					"attributes":{
						"TEXCOORD_1":20,
						"TANGENT":19,
						"TEXCOORD_0":18,
						"NORMAL":17,
						"POSITION":16
					},
					"indices":15
				}
			]
		},
		{
			"primitives":[
				{
					"attributes":{
						"TEXCOORD_1":26,
						"TANGENT":25,
						"TEXCOORD_0":24,
						"NORMAL":23,
						"POSITION":22
					},
					"indices":21
				}
			]
		},
		{
			"primitives":[
				{
					"attributes":{
						"TEXCOORD_1":32,
						"TANGENT":31,
						"TEXCOORD_0":30,
						"NORMAL":29,
						"POSITION":28
					},
					"indices":27
				}
			]
		},
		{
			"primitives":[
				{
					"attributes":{
						"TEXCOORD_1":38,
						"TANGENT":37,
						"TEXCOORD_0":36,
						"NORMAL":35,
						"POSITION":34
					},
					"indices":33
				}
			]
		},
		{
			"primitives":[
				{
					"attributes":{
						"TANGENT":43,
						"TEXCOORD_0":42,
						"NORMAL":41,
						"POSITION":40
					},
					"indices":39
				}
			]
		}
	],
	"scenes":[
		{
			"nodes":[0
			]
		}
	],
	"scene":0
}
