{
	"asset":{
		"version":"2.0",
		"generator":"Houdini GLTF 2.0 Exporter"
	},
	"accessors":[
		{
			"bufferView":0,
			"componentType":5121,
			"count":93,
			"type":"SCALAR",
			"min":[0
			],
			"max":[92
			]
		},
		{
			"bufferView":1,
			"componentType":5126,
			"count":93,
			"type":"VEC3",
			"min":[-0.360235989,5.80412674,-0.280897588
			],
			"max":[0.360235929,6.52801991,-0.234508961
			]
		},
		{
			"bufferView":2,
			"componentType":5126,
			"count":93,
			"type":"VEC3",
			"min":[-0.965143144,-0.997807026,-0.943847299
			],
			"max":[0.991774142,0.991988122,0.0126435915
			]
		},
		{
			"bufferView":3,
			"componentType":5123,
			"count":129,
			"type":"SCALAR",
			"min":[0
			],
			"max":[128
			]
		},
		{
			"bufferView":4,
			"componentType":5126,
			"count":129,
			"type":"VEC3",
			"min":[-0.352965534,4.90732193,-0.334707528
			],
			"max":[0.352925837,5.61711645,-0.234508961
			]
		},
		{
			"bufferView":5,
			"componentType":5126,
			"count":129,
			"type":"VEC3",
			"min":[-0.965186775,-0.997807443,-0.998717368
			],
			"max":[0.991779566,0.992007613,0.0116687389
			]
		},
		{
			"bufferView":6,
			"componentType":5123,
			"count":462,
			"type":"SCALAR",
			"min":[0
			],
			"max":[461
			]
		},
		{
			"bufferView":7,
			"componentType":5126,
			"count":462,
			"type":"VEC3",
			"min":[-1.40714645,0.324825704,0.899186432
			],
			"max":[1.40968919,1.83163953,3.52505612
			]
		},
		{
			"bufferView":8,
			"componentType":5126,
			"count":462,
			"type":"VEC3",
			"min":[-0.904224396,-0.982554257,-0.994982719
			],
			"max":[0.904224277,0.998472154,0.972186625
			]
		},
		{
			"bufferView":9,
			"componentType":5123,
			"count":3252,
			"type":"SCALAR",
			"min":[0
			],
			"max":[3251
			]
		},
		{
			"bufferView":10,
			"componentType":5126,
			"count":3252,
			"type":"VEC3",
			"min":[-2.12930965,-0.0389978886,-0.271036863
			],
			"max":[2.12930965,11.9062729,6.02943802
			]
		},
		{
			"bufferView":11,
			"componentType":5126,
			"count":3252,
			"type":"VEC3",
			"min":[-0.998328924,-0.998951375,-1
			],
			"max":[0.998329699,0.98255831,0.999891341
			]
		}
	],
	"buffers":[
		{
			"uri":"go_controller_data.bin",
			"byteLength":102248,
			"name":"main_buffer"
		}
	],
	"bufferViews":[
		{
			"buffer":0,
			"byteLength":93,
			"target":34963
		},
		{
			"buffer":0,
			"byteOffset":96,
			"byteLength":1116,
			"target":34962
		},
		{
			"buffer":0,
			"byteOffset":1212,
			"byteLength":1116,
			"target":34962
		},
		{
			"buffer":0,
			"byteOffset":2328,
			"byteLength":258,
			"target":34963
		},
		{
			"buffer":0,
			"byteOffset":2588,
			"byteLength":1548,
			"target":34962
		},
		{
			"buffer":0,
			"byteOffset":4136,
			"byteLength":1548,
			"target":34962
		},
		{
			"buffer":0,
			"byteOffset":5684,
			"byteLength":924,
			"target":34963
		},
		{
			"buffer":0,
			"byteOffset":6608,
			"byteLength":5544,
			"target":34962
		},
		{
			"buffer":0,
			"byteOffset":12152,
			"byteLength":5544,
			"target":34962
		},
		{
			"buffer":0,
			"byteOffset":17696,
			"byteLength":6504,
			"target":34963
		},
		{
			"buffer":0,
			"byteOffset":24200,
			"byteLength":39024,
			"target":34962
		},
		{
			"buffer":0,
			"byteOffset":63224,
			"byteLength":39024,
			"target":34962
		}
	],
	"nodes":[
		{
			"children":[1,2,3,4,5
			],
			"matrix":[0.930770218,-0.288439542,0.224654019,0,0.280387968,0.957498133,0.0676754341,0,-0.23462607,0,0.972085714,0,0,0,0,1
			],
			"name":"go_controller"
		},
		{
			"matrix":[0.00999999978,0,0,0,0,-1.68587388e-09,0.00999999978,0,0,-0.00999999978,-1.68587388e-09,0,0,0,1.77635684e-15,1
			],
			"name":"oculus_go_button_home",
			"mesh":0
		},
		{
			"matrix":[0.00999999978,0,0,0,0,-1.68587388e-09,0.00999999978,0,0,-0.00999999978,-1.68587388e-09,0,0,0,1.77635684e-15,1
			],
			"name":"oculus_go_button_back",
			"mesh":1
		},
		{
			"matrix":[0.00999999978,0,0,0,0,-1.68587388e-09,0.00999999978,0,0,-0.00999999978,-1.68587388e-09,0,0,0,1.77635684e-15,1
			],
			"name":"oculus_go_button_trigger",
			"mesh":2
		},
		{
			"matrix":[0.00999999978,0,0,0,0,-1.68587388e-09,0.00999999978,0,0,-0.00999999978,-1.68587388e-09,0,0,0,1.77635684e-15,1
			],
			"name":"oculus_go_controller",
			"mesh":3
		},
		{
			"matrix":[0.00999999978,0,0,0,0,-1.68587388e-09,0.00999999978,0,0,-0.00999999978,-1.68587388e-09,0,0,0,1.77635684e-15,1
			],
			"name":"oculus_go_touchpad"
		}
	],
	"meshes":[
		{
			"primitives":[
				{
					"attributes":{
						"NORMAL":2,
						"POSITION":1
					},
					"indices":0
				}
			]
		},
		{
			"primitives":[
				{
					"attributes":{
						"NORMAL":5,
						"POSITION":4
					},
					"indices":3
				}
			]
		},
		{
			"primitives":[
				{
					"attributes":{
						"NORMAL":8,
						"POSITION":7
					},
					"indices":6
				}
			]
		},
		{
			"primitives":[
				{
					"attributes":{
						"NORMAL":11,
						"POSITION":10
					},
					"indices":9
				}
			]
		}
	],
	"scenes":[
		{
			"nodes":[0
			]
		}
	],
	"scene":0
}
